<svg width="192" height="46" viewBox="0 0 192 46" fill="none" xmlns="http://www.w3.org/2000/svg">
<path d="M14.7332 1.51773L24.8264 30.968L34.894 1.51773H46.8791L29.9629 45.9021H19.6043L2.65381 1.51773H14.7332Z" fill="#4EF9F4"/>
<path d="M93.3132 22.4681V45.9021H81.7389V35.1646H60.1656V45.9021H48.4543V22.4681C48.4543 16.7726 50.8174 11.3104 55.0238 7.28302C59.2301 3.25568 64.9351 0.993149 70.8838 0.993149C76.8324 0.993149 82.5374 3.25568 86.7438 7.28302C90.9501 11.3104 93.3132 16.7726 93.3132 22.4681ZM81.7389 23.9517V22.4681C81.7302 19.721 80.5947 17.0871 78.5771 15.1338C76.5595 13.1806 73.8212 12.0644 70.9523 12.0257C69.5272 12.0311 68.1173 12.3057 66.8033 12.8338C65.4893 13.3619 64.2971 14.1331 63.295 15.1032C62.2929 16.0733 61.5007 17.2232 60.9637 18.487C60.4266 19.7509 60.1554 21.1037 60.1656 22.4681V23.9517H81.7389Z" fill="#E2F705"/>
<path d="M112.806 27.9024C91.9692 23.9517 96.7119 1.67342 114.347 1.67342H137.213V12.4355H114.347C109.844 12.4355 108.671 15.8617 115.332 16.9846L129.32 19.4436C150.157 23.3369 145.355 45.943 127.719 45.943H102.08V34.7629H127.762C132.325 34.7629 133.498 31.4023 126.778 30.2794L112.806 27.9024Z" fill="#F50B86"/>
<path d="M161.74 27.9024C140.912 23.9517 145.654 1.67342 163.281 1.67342H186.156V12.4355H163.281C158.787 12.4355 157.614 15.8617 164.274 16.9846L178.263 19.4436C199.1 23.2877 194.331 45.902 176.662 45.902H150.979V34.7629H176.662C181.225 34.7629 182.398 31.4023 175.677 30.2794L161.74 27.9024Z" fill="#FF6F00"/>
<path d="M12.0794 0.927536L22.1298 30.3778L32.2402 0.927536H44.2253L27.3091 45.3119H16.9505L0 0.927536H12.0794Z" fill="white"/>
<path d="M90.6165 21.878V45.3119H79.085V34.5662H57.5117V45.3119H45.8004V21.878C45.7422 19.0252 46.2787 16.19 47.3787 13.5382C48.4786 10.8864 50.1199 8.47126 52.2064 6.43407C54.293 4.39689 56.7829 2.77857 59.5306 1.6738C62.2782 0.56903 65.2284 0 68.2084 0C71.1885 0 74.1387 0.56903 76.8863 1.6738C79.634 2.77857 82.1239 4.39689 84.2104 6.43407C86.297 8.47126 87.9382 10.8864 89.0382 13.5382C90.1381 16.19 90.6747 19.0252 90.6165 21.878ZM79.085 23.3533V21.878C79.0763 19.1308 77.9408 16.4969 75.9232 14.5437C73.9056 12.5904 71.1673 11.4742 68.2983 11.4355C66.873 11.4398 65.4625 11.7137 64.148 12.2414C62.8335 12.7691 61.6409 13.5403 60.6385 14.5106C59.6362 15.4809 58.844 16.6313 58.3074 17.8956C57.7708 19.1599 57.5004 20.5133 57.5117 21.878V23.3533H79.085Z" fill="white"/>
<path d="M110.152 27.3122C89.3153 23.3533 94.0581 1.08327 111.693 1.08327H134.559V11.8126H111.693C107.19 11.8126 106.018 15.2387 112.678 16.3616L126.701 18.8124C147.538 22.7058 142.726 45.3119 125.1 45.3119H99.4257V34.1564H125.108C129.671 34.1564 130.844 30.7958 124.124 29.6729L110.152 27.3122Z" fill="white"/>
<path d="M159.086 27.3122C138.249 23.3533 143 1.08327 160.627 1.08327H183.502V11.8126H160.627C156.133 11.8126 154.96 15.2387 161.611 16.3616L175.608 18.7796C196.446 22.673 191.634 45.2791 174.008 45.2791H148.325V34.1564H174.008C178.571 34.1564 179.735 30.7958 173.023 29.6729L159.086 27.3122Z" fill="white"/>
</svg>
