<svg xmlns="http://www.w3.org/2000/svg" viewBox="0 0 224.26 55.59"><defs><style>.cls-1{fill:#4ef9f4;}.cls-2{fill:#e2f705;}.cls-3{fill:#f50b86;}.cls-4{fill:#ff6f00;}</style></defs><g id="Capa_2" data-name="Capa 2"><g id="Capa_1-2" data-name="Capa 1"><path class="cls-1" d="M17.21,1.44,29,37.37,40.76,1.44h14L35,55.59H22.9L3.1,1.44Z"/><path class="cls-2" d="M109,27V55.59H95.48V42.49H70.28v13.1H56.6V27A26.18,26.18,0,1,1,109,27ZM95.48,28.81V27a12.78,12.78,0,0,0-12.6-12.74A12.65,12.65,0,0,0,70.28,27v1.81Z"/><path class="cls-3" d="M131.77,33.63c-24.34-4.82-18.8-32,1.8-32h26.71V14.76H133.57c-5.26,0-6.63,4.18,1.15,5.55l16.34,3c24.34,4.75,18.73,32.33-1.87,32.33H119.24V42h30c5.33,0,6.7-4.1-1.15-5.47Z"/><path class="cls-4" d="M188.93,33.63c-24.33-4.82-18.79-32,1.8-32h26.72V14.76H190.73c-5.25,0-6.62,4.18,1.16,5.55l16.34,3C232.57,28,227,55.59,206.36,55.59h-30V42h30c5.33,0,6.7-4.1-1.15-5.47Z"/><path d="M14.11.72,25.85,36.65,37.66.72h14L31.9,54.87H19.8L0,.72Z"/><path d="M105.85,26.28V54.87H92.38V41.76H67.18V54.87H53.5V26.28a26.18,26.18,0,1,1,52.35,0Zm-13.47,1.8v-1.8a12.78,12.78,0,0,0-12.6-12.74,12.64,12.64,0,0,0-12.6,12.74v1.8Z"/><path d="M128.67,32.91c-24.34-4.83-18.8-32,1.8-32h26.71V14H130.47c-5.26,0-6.63,4.18,1.15,5.55L148,22.54c24.34,4.75,18.72,32.33-1.87,32.33H116.14V41.26h30c5.33,0,6.7-4.1-1.15-5.47Z"/><path d="M185.83,32.91c-24.34-4.83-18.79-32,1.8-32h26.72V14H187.63c-5.25,0-6.62,4.18,1.15,5.55l16.35,2.95c24.34,4.75,18.72,32.33-1.87,32.33h-30V41.26h30c5.33,0,6.69-4.1-1.15-5.47Z"/></g></g></svg>